<mxfile host="app.diagrams.net" modified="2023-06-13T06:55:43.811Z" agent="Mozilla/5.0 (X11; Linux x86_64) AppleWebKit/537.36 (KHTML, like Gecko) Chrome/114.0.0.0 Safari/537.36" etag="5YqdEmpwic9sptsDGu5u" version="21.3.8" type="device">
  <diagram id="3a2UMP3uVo23xNnavfp7" name="Page-1">
    <mxGraphModel dx="1035" dy="694" grid="1" gridSize="10" guides="1" tooltips="1" connect="1" arrows="1" fold="1" page="1" pageScale="1" pageWidth="850" pageHeight="1100" math="0" shadow="0">
      <root>
        <mxCell id="0" />
        <mxCell id="1" parent="0" />
        <mxCell id="A1kJsQe7Ka4o7Ff1RWd9-35" style="edgeStyle=orthogonalEdgeStyle;rounded=0;orthogonalLoop=1;jettySize=auto;html=1;exitX=0.5;exitY=0.5;exitDx=0;exitDy=0;exitPerimeter=0;entryX=0.5;entryY=0;entryDx=0;entryDy=0;startArrow=classic;startFill=1;strokeWidth=1;" parent="1" source="A1kJsQe7Ka4o7Ff1RWd9-1" target="A1kJsQe7Ka4o7Ff1RWd9-34" edge="1">
          <mxGeometry relative="1" as="geometry">
            <Array as="points">
              <mxPoint x="330" y="280" />
            </Array>
          </mxGeometry>
        </mxCell>
        <mxCell id="A1kJsQe7Ka4o7Ff1RWd9-3" value="Nominators" style="shape=umlActor;verticalLabelPosition=bottom;labelBackgroundColor=#ffffff;verticalAlign=top;html=1;outlineConnect=0;" parent="1" vertex="1">
          <mxGeometry x="30" y="99" width="30" height="60" as="geometry" />
        </mxCell>
        <mxCell id="A1kJsQe7Ka4o7Ff1RWd9-6" value="Elector" style="shape=switch;whiteSpace=wrap;html=1;" parent="1" vertex="1">
          <mxGeometry x="60" y="340" width="150" height="60" as="geometry" />
        </mxCell>
        <mxCell id="aw14XoL2_0RgMR3itbOI-4" style="edgeStyle=orthogonalEdgeStyle;rounded=0;orthogonalLoop=1;jettySize=auto;html=1;exitX=0.5;exitY=0;exitDx=0;exitDy=0;entryX=0.5;entryY=1;entryDx=0;entryDy=0;" edge="1" parent="1" source="A1kJsQe7Ka4o7Ff1RWd9-18" target="aw14XoL2_0RgMR3itbOI-3">
          <mxGeometry relative="1" as="geometry" />
        </mxCell>
        <mxCell id="A1kJsQe7Ka4o7Ff1RWd9-18" value="poll jetton" style="rounded=1;whiteSpace=wrap;html=1;" parent="1" vertex="1">
          <mxGeometry x="100" y="84" width="120" height="30" as="geometry" />
        </mxCell>
        <mxCell id="A1kJsQe7Ka4o7Ff1RWd9-19" value="Deposit" style="rounded=1;whiteSpace=wrap;html=1;" parent="1" vertex="1">
          <mxGeometry x="100" y="140" width="120" height="30" as="geometry" />
        </mxCell>
        <mxCell id="A1kJsQe7Ka4o7Ff1RWd9-20" value="Withdrawal" style="rounded=1;whiteSpace=wrap;html=1;" parent="1" vertex="1">
          <mxGeometry x="100" y="170" width="120" height="30" as="geometry" />
        </mxCell>
        <mxCell id="iW-wRdc1awABzqb9qvkf-9" style="edgeStyle=orthogonalEdgeStyle;rounded=0;orthogonalLoop=1;jettySize=auto;html=1;exitX=0;exitY=0.25;exitDx=0;exitDy=0;entryX=1;entryY=0.5;entryDx=0;entryDy=0;" parent="1" source="A1kJsQe7Ka4o7Ff1RWd9-28" target="iW-wRdc1awABzqb9qvkf-6" edge="1">
          <mxGeometry relative="1" as="geometry">
            <Array as="points">
              <mxPoint x="660" y="205" />
              <mxPoint x="660" y="180" />
            </Array>
          </mxGeometry>
        </mxCell>
        <mxCell id="iW-wRdc1awABzqb9qvkf-11" style="edgeStyle=orthogonalEdgeStyle;rounded=0;orthogonalLoop=1;jettySize=auto;html=1;exitX=0;exitY=0;exitDx=0;exitDy=0;entryX=1;entryY=0.5;entryDx=0;entryDy=0;" parent="1" source="A1kJsQe7Ka4o7Ff1RWd9-28" target="iW-wRdc1awABzqb9qvkf-5" edge="1">
          <mxGeometry relative="1" as="geometry" />
        </mxCell>
        <mxCell id="aw14XoL2_0RgMR3itbOI-6" style="edgeStyle=orthogonalEdgeStyle;rounded=0;orthogonalLoop=1;jettySize=auto;html=1;exitX=0;exitY=0.5;exitDx=0;exitDy=0;entryX=1;entryY=0.25;entryDx=0;entryDy=0;" edge="1" parent="1" source="A1kJsQe7Ka4o7Ff1RWd9-28" target="A1kJsQe7Ka4o7Ff1RWd9-1">
          <mxGeometry relative="1" as="geometry" />
        </mxCell>
        <mxCell id="A1kJsQe7Ka4o7Ff1RWd9-28" value="Governor" style="rounded=1;whiteSpace=wrap;html=1;" parent="1" vertex="1">
          <mxGeometry x="670" y="189" width="120" height="60" as="geometry" />
        </mxCell>
        <mxCell id="aw14XoL2_0RgMR3itbOI-1" style="edgeStyle=orthogonalEdgeStyle;rounded=0;orthogonalLoop=1;jettySize=auto;html=1;entryX=1;entryY=0.5;entryDx=0;entryDy=0;" edge="1" parent="1" source="A1kJsQe7Ka4o7Ff1RWd9-30" target="A1kJsQe7Ka4o7Ff1RWd9-31">
          <mxGeometry relative="1" as="geometry" />
        </mxCell>
        <mxCell id="A1kJsQe7Ka4o7Ff1RWd9-30" value="Governers" style="shape=umlActor;verticalLabelPosition=bottom;labelBackgroundColor=#ffffff;verticalAlign=top;html=1;outlineConnect=0;" parent="1" vertex="1">
          <mxGeometry x="810" y="39" width="30" height="60" as="geometry" />
        </mxCell>
        <mxCell id="aw14XoL2_0RgMR3itbOI-2" style="edgeStyle=orthogonalEdgeStyle;rounded=0;orthogonalLoop=1;jettySize=auto;html=1;exitX=0.5;exitY=1;exitDx=0;exitDy=0;entryX=0.5;entryY=0;entryDx=0;entryDy=0;" edge="1" parent="1" source="A1kJsQe7Ka4o7Ff1RWd9-31" target="A1kJsQe7Ka4o7Ff1RWd9-28">
          <mxGeometry relative="1" as="geometry" />
        </mxCell>
        <mxCell id="A1kJsQe7Ka4o7Ff1RWd9-31" value="DAO" style="rounded=1;whiteSpace=wrap;html=1;" parent="1" vertex="1">
          <mxGeometry x="670" y="54" width="120" height="30" as="geometry" />
        </mxCell>
        <mxCell id="A1kJsQe7Ka4o7Ff1RWd9-37" style="edgeStyle=orthogonalEdgeStyle;rounded=0;orthogonalLoop=1;jettySize=auto;html=1;exitX=0.5;exitY=0.5;exitDx=0;exitDy=0;exitPerimeter=0;entryX=1;entryY=0.5;entryDx=0;entryDy=0;startArrow=classic;startFill=1;strokeWidth=1;" parent="1" source="A1kJsQe7Ka4o7Ff1RWd9-33" target="A1kJsQe7Ka4o7Ff1RWd9-34" edge="1">
          <mxGeometry relative="1" as="geometry" />
        </mxCell>
        <mxCell id="A1kJsQe7Ka4o7Ff1RWd9-33" value="Validators" style="shape=umlActor;verticalLabelPosition=bottom;labelBackgroundColor=#ffffff;verticalAlign=top;html=1;outlineConnect=0;" parent="1" vertex="1">
          <mxGeometry x="750" y="340" width="30" height="60" as="geometry" />
        </mxCell>
        <mxCell id="A1kJsQe7Ka4o7Ff1RWd9-36" style="edgeStyle=orthogonalEdgeStyle;rounded=0;orthogonalLoop=1;jettySize=auto;html=1;exitX=0;exitY=0.5;exitDx=0;exitDy=0;entryX=0.75;entryY=0.5;entryDx=0;entryDy=0;entryPerimeter=0;startArrow=classic;startFill=1;strokeWidth=1;" parent="1" source="A1kJsQe7Ka4o7Ff1RWd9-34" target="A1kJsQe7Ka4o7Ff1RWd9-6" edge="1">
          <mxGeometry relative="1" as="geometry" />
        </mxCell>
        <mxCell id="A1kJsQe7Ka4o7Ff1RWd9-34" value="Validator Controllers" style="rounded=1;whiteSpace=wrap;html=1;" parent="1" vertex="1">
          <mxGeometry x="270" y="340" width="120" height="60" as="geometry" />
        </mxCell>
        <mxCell id="u-6cv714392phKC8kd4y-1" value="" style="endArrow=none;dashed=1;html=1;dashPattern=1 3;strokeWidth=2;rounded=0;" parent="1" edge="1">
          <mxGeometry width="50" height="50" relative="1" as="geometry">
            <mxPoint x="520" y="99" as="sourcePoint" />
            <mxPoint x="830" y="99" as="targetPoint" />
          </mxGeometry>
        </mxCell>
        <mxCell id="u-6cv714392phKC8kd4y-2" value="Optional" style="text;html=1;align=center;verticalAlign=middle;resizable=0;points=[];autosize=1;strokeColor=none;fillColor=none;fontSize=17;" parent="1" vertex="1">
          <mxGeometry x="690" y="19" width="90" height="30" as="geometry" />
        </mxCell>
        <mxCell id="iW-wRdc1awABzqb9qvkf-26" style="edgeStyle=orthogonalEdgeStyle;rounded=0;orthogonalLoop=1;jettySize=auto;html=1;exitX=0;exitY=0.5;exitDx=0;exitDy=0;entryX=0;entryY=0.5;entryDx=0;entryDy=0;entryPerimeter=0;" parent="1" source="A1kJsQe7Ka4o7Ff1RWd9-1" target="iW-wRdc1awABzqb9qvkf-15" edge="1">
          <mxGeometry relative="1" as="geometry" />
        </mxCell>
        <mxCell id="2GaQWyi11btwGb4y9AYa-6" value="Round lending&lt;br&gt;stats" style="edgeStyle=orthogonalEdgeStyle;rounded=0;orthogonalLoop=1;jettySize=auto;html=1;exitX=0.5;exitY=0;exitDx=0;exitDy=0;entryX=0.75;entryY=1;entryDx=0;entryDy=0;" parent="1" source="A1kJsQe7Ka4o7Ff1RWd9-1" target="2GaQWyi11btwGb4y9AYa-4" edge="1">
          <mxGeometry x="0.4655" relative="1" as="geometry">
            <mxPoint as="offset" />
          </mxGeometry>
        </mxCell>
        <mxCell id="A1kJsQe7Ka4o7Ff1RWd9-1" value="Pool" style="rounded=1;whiteSpace=wrap;html=1;" parent="1" vertex="1">
          <mxGeometry x="320" y="206" width="120" height="50" as="geometry" />
        </mxCell>
        <mxCell id="iW-wRdc1awABzqb9qvkf-5" value="Halter" style="rounded=1;whiteSpace=wrap;html=1;" parent="1" vertex="1">
          <mxGeometry x="530" y="110" width="120" height="40" as="geometry" />
        </mxCell>
        <mxCell id="iW-wRdc1awABzqb9qvkf-6" value="Sudoer&lt;br&gt;(empty by default)" style="rounded=1;whiteSpace=wrap;html=1;" parent="1" vertex="1">
          <mxGeometry x="530" y="160" width="120" height="40" as="geometry" />
        </mxCell>
        <mxCell id="iW-wRdc1awABzqb9qvkf-13" style="edgeStyle=orthogonalEdgeStyle;rounded=0;orthogonalLoop=1;jettySize=auto;html=1;exitX=0.5;exitY=1;exitDx=0;exitDy=0;entryX=1;entryY=0.25;entryDx=0;entryDy=0;" parent="1" source="iW-wRdc1awABzqb9qvkf-7" target="A1kJsQe7Ka4o7Ff1RWd9-34" edge="1">
          <mxGeometry relative="1" as="geometry" />
        </mxCell>
        <mxCell id="iW-wRdc1awABzqb9qvkf-7" value="Approver" style="rounded=1;whiteSpace=wrap;html=1;" parent="1" vertex="1">
          <mxGeometry x="430" y="290" width="120" height="40" as="geometry" />
        </mxCell>
        <mxCell id="iW-wRdc1awABzqb9qvkf-15" value="" style="strokeWidth=2;html=1;shape=mxgraph.flowchart.annotation_2;align=left;labelPosition=right;pointerEvents=1;rotation=-180;" parent="1" vertex="1">
          <mxGeometry x="210" y="80" width="30" height="125" as="geometry" />
        </mxCell>
        <mxCell id="iW-wRdc1awABzqb9qvkf-20" value="" style="strokeWidth=2;html=1;shape=mxgraph.flowchart.annotation_2;align=left;labelPosition=right;pointerEvents=1;" parent="1" vertex="1">
          <mxGeometry x="490" y="105" width="50" height="100" as="geometry" />
        </mxCell>
        <mxCell id="iW-wRdc1awABzqb9qvkf-24" value="To everything" style="text;html=1;align=center;verticalAlign=middle;resizable=0;points=[];autosize=1;strokeColor=none;fillColor=none;" parent="1" vertex="1">
          <mxGeometry x="400" y="140" width="90" height="30" as="geometry" />
        </mxCell>
        <mxCell id="2GaQWyi11btwGb4y9AYa-5" value="Interest&lt;br&gt;rate" style="edgeStyle=orthogonalEdgeStyle;rounded=0;orthogonalLoop=1;jettySize=auto;html=1;exitX=0.25;exitY=1;exitDx=0;exitDy=0;entryX=0.25;entryY=0;entryDx=0;entryDy=0;" parent="1" source="2GaQWyi11btwGb4y9AYa-4" target="A1kJsQe7Ka4o7Ff1RWd9-1" edge="1">
          <mxGeometry x="0.5205" y="-20" relative="1" as="geometry">
            <mxPoint as="offset" />
          </mxGeometry>
        </mxCell>
        <mxCell id="2GaQWyi11btwGb4y9AYa-4" value="Interest Manager" style="rounded=1;whiteSpace=wrap;html=1;" parent="1" vertex="1">
          <mxGeometry x="290" y="49" width="120" height="40" as="geometry" />
        </mxCell>
        <mxCell id="aw14XoL2_0RgMR3itbOI-3" value="Network config&lt;br&gt;voting / DAO" style="rounded=1;whiteSpace=wrap;html=1;" vertex="1" parent="1">
          <mxGeometry x="100" y="9" width="120" height="40" as="geometry" />
        </mxCell>
      </root>
    </mxGraphModel>
  </diagram>
</mxfile>
